<svg width="35" height="34" viewBox="0 0 35 34" fill="none" xmlns="http://www.w3.org/2000/svg">
<path d="M4.96124 5.6499C3.78694 5.6499 2.83496 6.60188 2.83496 7.77618V13.4462H4.25246V7.77618C4.25246 7.38475 4.56981 7.0674 4.96124 7.0674H21.9715V5.6499H4.96124ZM4.96124 26.9127C4.56981 26.9127 4.25246 26.5954 4.25246 26.2039V19.1163H2.83496V26.2039C2.83496 27.3782 3.78694 28.3302 4.96124 28.3302H12.0489V26.9127H4.96124Z" fill="white"/>
<path d="M22.4725 28.7403L5.25955 11.5273C4.9828 11.2507 4.53416 11.2507 4.25734 11.5273L0.207512 15.5772C-0.0691705 15.854 -0.0691705 16.3026 0.207512 16.5794L17.4205 33.7923C17.4863 33.8582 17.5644 33.9104 17.6504 33.946C17.7363 33.9816 17.8285 34 17.9215 34C18.0146 34 18.1068 33.9816 18.1927 33.946C18.2787 33.9104 18.3568 33.8582 18.4226 33.7923L22.4725 29.7425C22.7492 29.4657 22.7492 29.017 22.4725 28.7403ZM17.9215 32.2891L1.71079 16.0783L4.75848 13.0306L20.9692 29.2414L17.9215 32.2891Z" fill="white"/>
<path d="M31.1852 26.9126H20.5538V28.3301H28.3501V31.8739C28.3501 32.2653 28.6675 32.5826 29.0589 32.5826H31.1852C32.7509 32.5826 34.0202 31.3134 34.0202 29.7476C34.0202 28.1818 32.7509 26.9126 31.1852 26.9126ZM31.1852 31.1651H29.7677V28.3301H31.1852C31.9681 28.3301 32.6027 28.9647 32.6027 29.7476C32.6027 30.5305 31.9681 31.1651 31.1852 31.1651Z" fill="white"/>
<path d="M31.1852 5.6499H27.6414V7.0674H31.1852C31.9681 7.0674 32.6027 7.70203 32.6027 8.4849V29.7477H34.0202V8.4849C34.0203 6.91916 32.751 5.6499 31.1852 5.6499ZM10.8389 22.1591L12.9654 20.0326L13.9677 21.0349L11.8413 23.1613L10.8389 22.1591ZM8.00398 19.3239L10.1304 17.1975L11.1327 18.1999L9.00626 20.3263L8.00398 19.3239ZM13.6724 24.9941L15.7989 22.8677L16.8012 23.87L14.6747 25.9964L13.6724 24.9941ZM16.5088 27.8306L18.6352 25.7041L19.6375 26.7065L17.511 28.8329L16.5088 27.8306ZM5.16699 16.4889L7.2934 14.3625L8.29575 15.3648L6.16927 17.4913L5.16699 16.4889Z" fill="white"/>
<path d="M30.5714 1.57286L29.5919 0.593379C28.7631 -0.197793 27.4588 -0.197793 26.63 0.593379L15.8527 11.3707C15.576 11.6475 15.576 12.0961 15.8527 12.3729L18.7919 15.3122C18.8575 15.3782 18.9356 15.4306 19.0216 15.4662C19.1076 15.5019 19.1999 15.5201 19.293 15.5198C19.4809 15.5197 19.6611 15.4451 19.794 15.3122L30.5714 4.53476L30.5724 4.53376C31.3898 3.71588 31.3893 2.39021 30.5714 1.57286ZM29.57 3.53189L19.293 13.8088L17.3559 11.8718L27.6329 1.59552C27.7618 1.4724 27.9331 1.4037 28.1113 1.4037C28.2896 1.4037 28.4609 1.4724 28.5897 1.59552L29.57 2.57433L29.5703 2.57467C29.8345 2.83905 29.8343 3.26763 29.57 3.53189Z" fill="white"/>
<path d="M19.0654 14.1395L16.0065 15.1609L17.0278 12.0969L15.6811 11.6483L14.2112 16.0574C14.1871 16.1297 14.1748 16.2054 14.1748 16.2815C14.1749 16.673 14.4923 16.9903 14.8837 16.9901C14.9587 16.9904 15.0334 16.9789 15.1048 16.9561L19.514 15.4861L19.0654 14.1395ZM24.6699 3.55507L25.6723 2.55273L28.6116 5.49197L27.6093 6.49431L24.6699 3.55507Z" fill="white"/>
<path d="M14.8839 15.5723H25.5153V16.9898H14.8839V15.5723ZM26.9328 15.5723H28.3503V16.9898H26.9328V15.5723ZM29.7678 15.5723H31.1853V16.9898H29.7678V15.5723Z" fill="white"/>
</svg>
